<svg xmlns="http://www.w3.org/2000/svg" version="1.1" xmlns:xlink="http://www.w3.org/1999/xlink" xmlns:svgjs="http://svgjs.com/svgjs" width="512" height="512"><svg xmlns="http://www.w3.org/2000/svg" xml:space="preserve" fill-rule="evenodd" clip-rule="evenodd" version="1.1" viewBox="0 0 512 512"><g fill="#2c2523" transform="matrix(.62245 0 0 .61855 1.9 -3.102)"><circle cx="144.21" cy="385.02" r="8.27" transform="translate(121.036 35.383) scale(1.91447)"></circle><path d="m212.012 525.641 5.553-10.542-2.46 8.065-1.21 6.681-.623 5.622v14.192l1.2 10.222 5.03 18.408.203.52a99.2 99.2 0 0 0 18.598 30.246l.427.477 26.405 23.144v8.939l.838.837.31 4.23 3.004 12.054 3.25 7.752h-16.703c-1.627-2.68-4.212-4.403-7.773-5.17h-4.173l-5.17 2.586c-1.97 1.493-3.273 3.656-3.886 6.49v4.67l2.585 5.19a12.6 12.6 0 0 0 7.007 3.867c5.686.153 9.477-1.57 11.43-5.17h24.036c.468.634.956 1.253 1.463 1.856l.052.059c1.506 1.687 5.591 4.683 5.591 4.683l1.234.863 13.548 4.637.59 2.488.151.453a60.325 60.325 0 0 0 11.978 20.793l.315.356 4.583 4.345v19.37l-.536 39.956-.517 21.71H166.314a88.857 88.857 0 0 1 2.641-10.299c1.59-5.284 3.638-10.434 5.686-15.565v-1.819c-25.022-13.363-40.146-39.917-47.038-66.566-2.585-10.032-1.647-10.108-3.255-20.332a150.923 150.923 0 0 1-1.57-32.163c.326-3.963.096-7.964.517-11.927a121.316 121.316 0 0 1 8.424-32.871c3.79-9.094 13.516-22.4 17.23-27.837 5.457-7.964 12.578-17.479 19.719-24.103a204.447 204.447 0 0 1 43.344-31.397Zm23.069 230.598c4.423-.077 7.543 1.148 9.343 3.637l8.807-.536 14.55-1.034 27.989-1.55 3.39 1.55 2.066 3.906v2.584a7.378 7.378 0 0 1-3.37 4.92l-2.603 1.054-6.74.516-14.53 1.034-28.008 1.55c-1.82 3.868-8.77 5.055-11.927 5.189-2.757.115-5.495-2.106-7.007-4.403-1.513-2.297-2.24-6.796-2.068-9.343a9.273 9.273 0 0 1 3.1-5.973 14.183 14.183 0 0 1 7.008-3.1Zm7.792-47.728c1.551 0 3.753.517 5.17 1.034 1.2.572 2.336 1.272 3.388 2.087l.766 1.55s34.384-1.436 42.022-1.034c1.723.077 3.159 2.202 3.887 3.37.67 1.034.536 3.637.536 3.637a7.378 7.378 0 0 1-3.39 4.921c-1.894.86-8.288 1.033-8.288 1.033l-14.014.517-19.719.517c-1.915 3.944-6.069 5.686-12.445 5.188a15.241 15.241 0 0 1-7.523-5.437c-1.302-1.684-1.532-4.326-1.532-6.222a12.186 12.186 0 0 1 4.403-8.557 12.446 12.446 0 0 1 6.74-2.585l-.001-.02Z" stroke="#000" stroke-width=".27"></path><path d="m572.458 533.065 3.1 1.866 9.68 7.059 14.78 12.98c2.336 2.508 4.67 5.035 6.892 7.658 3.676 4.403 7.466 8.673 10.76 13.344 8.787 12.521 16.808 27.11 20.733 42.023 3.446 13.076 2.929 13.095 4.67 26.458 1.456 11.027.939 23.107 0 34.23-.86 10.53-1.34 20.294-4.134 31.13-6.26 24.084-18.723 45.66-40.99 58.104l6.147 31.78H467.747l-.02-.02c-2.87-42.807-5.99-89.71-6.202-91.95a2977.79 2977.79 0 0 0-1.904-19.549l8.325-2.727c7.745-2.537 14.89-5.722 21.44-9.548l3.517 3.048h40.99a13.811 13.811 0 0 0 8.289 5.19h3.637l4.652-2.069 2.872-2.872 1.551-3.1c.25-1.027.422-2.07.517-3.122l-.517-3.637-1.57-3.102c-1.953-3.522-5.858-5.169-11.678-4.94l.02.02a13.087 13.087 0 0 0-7.793 5.17h-31.071a94.758 94.758 0 0 0 5.304-4.792 92.91 92.91 0 0 0 20.74-29.545l.202-.454 4.57-13.63 1.506-8.143.57 11.622 17.913-26.35a119.54 119.54 0 0 0 14.525-29.344l.132-.395 3.446-13.828.348-6.282.993-.993-.593-11.29Zm-19.9 223.174c4.73.44 8.118 2.26 10.11 5.437 1.568 1.914 2.085 4.843 1.568 8.826a11.661 11.661 0 0 1-4.939 7.006c-2.01 1.628-5.112 2.145-9.342 1.55l-5.438-3.368-1.301-1.82-20.236-1.033-6.74-.517-7.274-.517-6.72-.517-7.275-.516a8.432 8.432 0 0 1-5.954-3.39c-.957-1.148-1.34-3.58-1.053-5.168.306-1.608 2.048-3.504 2.872-4.403.517-.575 1.3-.958 2.067-1.053 1.647-.192 8.29.517 8.29.517l7.275.516 13.995 1.034 6.758.517 7.256.536s5.877-.344 7.772.517l3.12-2.604 5.189-1.55Zm-8.806-48.245c5.8-.23 9.687 1.398 11.678 4.939 1.436 1.819 2.125 4.404 2.068 7.773a12.226 12.226 0 0 1-4.94 8.04l-4.671 2.07h-4.155a13.984 13.984 0 0 1-6.987-4.405l-.268-.766H494.97l-3.37-2.87-1.033-4.137a7.375 7.375 0 0 1 3.37-4.94l1.033-.516h41.774l1.818-2.584 5.169-2.604h.02Z" stroke="#2c2523" stroke-width=".27"></path><path d="M418.201 37.259h8.806l2.872.517-1.551 9.59v14.532l1.532 7.275 3.637 8.29 8.577 9.591 5.169 3.12 5.724.518 6.222-1.034 7.773-3.12a34.828 34.828 0 0 0 9.61-8.04c5.419-6.511 9.133-14.724 11.143-24.641a75.812 75.812 0 0 1 25.94 11.41c6.702 4.71 12.675 10.147 17.901 16.35 6.127 7.18 11.487 15.125 16.082 23.855l11.41 25.941 6.74 21.786 5.187 23.357 1.55 12.444 1.035 3.637 1.053 8.29 1.53 20.734 2.605 11.946c4.327 13.306 11.162 24.122 20.485 32.412 10.606 9.65 23.548 16.905 38.921 21.787l14.014 3.637 8.807 1.55 4.154.518 5.169.524h22.323l1.302-.516a72.94 72.94 0 0 1-20.485 25.94c-21.825 18.38-50.79 29.426-86.917 33.198.46 7.008.881 13.996 1.053 21.02.027 5.38-.319 10.75-1.034 16.08a95.858 95.858 0 0 1-8.309 30.08 51.864 51.864 0 0 1-4.671 7.792c-.536.804-1.953 1.09-2.068 2.067-.268 2.22.153 18.934 0 23.357-.172 5.36-.076 10.72-.517 16.08a207.91 207.91 0 0 0-.517 12.177l-5.188-1.55a45.692 45.692 0 0 1 7.773 16.33l1.053 4.673.517 5.706v8.308l-.785 1.82c-6.567-7.62-15.22-13.153-25.941-16.618l1.82 2.335a59.337 59.337 0 0 1 9.858 18.685l2.068 9.343.517 9.84-.517.516-.517 9.342-3.102 12.444a108.857 108.857 0 0 1-13.23 26.726l-.267-5.456-3.1-11.41a47.344 47.344 0 0 0-14.283-18.935l-9.84-6.222-.268.766 4.154 12.465 3.1 15.565 1.054 8.31v18.665l-.536 4.153-1.53 8.29-4.175 12.444a82.281 82.281 0 0 1-18.417 26.209c-9.764 9.516-21.787 16.6-36.05 21.27l.517-1.301-.517-10.893-.516-5.705-2.068-6.221a34.276 34.276 0 0 0-7.524-11.162l-.766 11.68a55.771 55.771 0 0 1-5.207 13.497 117.59 117.59 0 0 1-22.553 27.76l-26.458 22.284-6.49 6.51a39.555 39.555 0 0 0-7.275 16.08l-.497 5.687-.517.517-.268 12.71a466.642 466.642 0 0 0-52.4-39.935l-9.591-9.093a49.64 49.64 0 0 1-9.86-17.115l-2.584-10.894-.517-10.893 1.034-9.324 1.034-2.584-1.302-.768c-4.69.996-8.232 3.159-10.625 6.47l-2.604 4.404s-1.15 2.91-1.283 4.442c-.19 1.8.364 5.054.173 6.318l-2.853-.977s-2.738-1.914-3.695-2.986c-1.493-1.723-5.303-7.314-5.303-7.314l-4.67-11.142-2.586-10.376-.536-7.275-.517-.517v-13.48l3.12-17.63 3.102-9.343 4.672-9.343-1.283-.248c-8.424 1.97-14.895 5.858-19.451 11.678a32.307 32.307 0 0 0-7.007 14.244l-12.712-11.143a88.549 88.549 0 0 1-16.6-26.993l-4.67-17.095-1.034-8.807-.004-12.98.513-4.67 1.034-5.705 3.637-11.926a102.99 102.99 0 0 1 12.444-22.59c-8.96 1.529-16.464 4.649-22.57 9.359l-.25-2.335 3.1-9.86-2.066-8.805-1.034-12.98-.517-.517c-.287-2.412-.555-4.844-.517-7.275.23-20.025-.517-32.642 3.006-50.312 2.546-12.674 4.499-11.985 7.887-24.39.632-2.337-.804-6.473-1.053-8.808-1.13-10.587-1.627-22.706-1.474-33.12a264.792 264.792 0 0 1 6.663-55.597l1.053-8.806c1.206-5.36 3.1-10.032 5.705-14.014l-5.457.268-7.275 1.035-13.976 3.12a164.08 164.08 0 0 1-39.706-31.913 111.595 111.595 0 0 1-19.183-29.56l-6.222-18.685-2.603-17.9 17.9 8.31 15.565 5.17 16.082 3.118 16.598.536 5.169-.536 6.758-1.034 6.222-1.55 15.565-6.222a91.443 91.443 0 0 0 26.726-21.537l38.385-52.4a271.413 271.413 0 0 1 23.07-26.206 152.328 152.328 0 0 1 42.022-30.078 114.55 114.55 0 0 1 20.753-7.274l10.913-2.067 10.875-.517.517-.517.004-.005Zm-62.24 286.865-.02-.001 19.72.517 5.715.517 7.79 1.034 13.48 2.604 16.846 4.67c-3.254 9.286-5.992 18.59-5.169 28.26.536 6.355-.746 7.522 1.493 13.65 9.61 26.304 42.157 38.173 67.237 26.552a55.472 55.472 0 0 0 16.847-13.745l5.974-8.04a264.676 264.676 0 0 1 26.21 21.537l-.52 5.17-3.12 12.979-7.274 19.202a190.343 190.343 0 0 1-18.666 31.378 54.537 54.537 0 0 1-15.316-7.773l-17.097-14.55-15.048-9.323-14.53-6.222-11.928-3.121a55.417 55.417 0 0 1-12.444 16.589 34.172 34.172 0 0 1-14.014 7.793l-4.67 1.033h-8.807c-9.188-2.03-16.387-6.107-21.537-12.195l-8.042-11.678c-22.4 5.954-40.472 16.254-54.2 30.88l-.784 1.302-6.74 2.585-10.375.517c-.383-.632-3.39-.728-4.155-.517l-1.302-1.302c-5.054-6.107-9.706-15.01-12.98-22.131a392.274 392.274 0 0 1-8.806-20.39c-3.159-8.04-3.006-16.521-4.136-24.907-.036-.25-.515-.268-.534-.517-.574-12.903-.842-18.838.536-29.06.307-2.395.134-4.865.517-7.258.65-4.097 1.627-8.156 2.584-12.195l25.156-10.377 20.753-6.222 26.458-5.17 14.53-1.57h9.861l.518-.514-.005.006Zm-42.023-58.622c29.98 3.523 47.364 5.246 75.22 10.377 8.328 1.531 16.56 3.637 24.888 5.188 9.094 1.685 9.19.517 18.168 2.584a411.686 411.686 0 0 1 84.295 30.096l6.74 16.33 5.704 19.719 3.12 17.633 1.034 16.866a432.168 432.168 0 0 0-50.063-35.8c-15.316-9.381-31.915-17.518-49.796-24.372l-19.202-6.222c-8.08-1.876-16.196-3.771-24.37-5.188-2.911-.517-14.934-1.34-15.049-1.57h-28.01c-.113.23-9.686.881-11.409 1.053-8.213.823-22.208 3.446-29.578 5.169-5.744 1.36-11.43 3.025-17.116 4.69l-24.37 8.807.25-.766c7.98-21.767 19.832-39.667 35.53-53.7l14.014-10.894Zm33.193 74.703h8.294l10.376 1.034 5.19 1.034 3.904 2.87c.862 1.207 1.034 3.103.517 5.687l-2.872 3.37c-1.091.804-2.814.976-5.17.536l-7.274-1.57H342.98l-9.86 2.604-4.67 2.584h-3.1l-3.887-2.852-1.034-3.638c.374-2.546 1.485-4.365 3.362-5.437l9.839-4.154 7.792-1.55 5.705-.518Zm26.98-256.27 3.886 1.817 6.222 13.497 12.444 20.753 15.048 21.787 16.08 21.52h1.82l5.188-3.103 32.68-21.27c12.56-8.557 24.142-18.053 34.767-28.525l3.1-.536 2.873 2.335c.325 2.432 0 4.155-1.053 5.19l-15.048 24.887a105.165 105.165 0 0 1-17.364 18.953l-11.41 8.807-19.987 12.195 13.229 15.832 6.222-7.274c1.148-1.111 3.063-1.455 5.724-1.034l2.853 1.818c1.263.958 1.78 2.68 1.53 5.17l-1.014 2.603-5.705 6.222-1.053 2.604 17.384 19.45c.804.27 1.053.02.766-.765l1.57-3.637 2.335-2.336c.938-.957 2.49-1.32 4.67-1.034l4.405 3.37.517 4.135-4.672 9.343v1.55l7.275 7.79.517 3.116-1.82 2.314-3.636.536-8.29-6.24-4.67 5.188c-3.983 4.327-10.033 6.586-18.15 6.76-8.04-1.495-13.995-5.037-17.901-10.646a22.7 22.7 0 0 1-4.154-9.342V227.36a56.307 56.307 0 0 1 5.17-14.512l-22.553-21.02h-1.034l-30.345 12.71c1.168 14.32-2.03 24.257-9.591 29.829l-7.792 4.153-4.67 1.034-7.774.002c-5.495-1.244-9.745-3.752-12.712-7.524l-3.638-5.17-2.852-6.508-10.377 3.12-3.37-2.335-.516-2.585 1.034-2.335 10.912-5.457-.536-12.96 1.82-2.853c1.033-1.034 2.603-1.55 4.67-1.55 2.24.517 3.887 1.627 4.92 3.37l1.054 8.04 24.37-12.712-3.637-9.861v-4.154l2.872-3.37c1.09-.784 2.833-.956 5.169-.516l3.39 2.872 3.1 9.054 5.973-2.584 13.746-8.04a172.083 172.083 0 0 1-26.994-40.473l-6.203-18.665-4.67-28.526 2.335-3.37 1.55-.535Zm81.69 137.995-2.586 9.342.517 5.706 2.087 3.637c1.723 2.412 4.48 3.963 8.29 4.652h3.118l5.167-2.584 3.638-3.638v-1.034l-18.666-16.08-1.57.004Zm-76.772-12.98-19.183 6.758-3.12.517-1.034 1.034 3.121 6.222 5.169 3.637c4.862.69 8.48 0 10.912-2.068l3.102-3.12 2.086-6.222v-6.222l-1.053-.517v-.02Z"></path></g></svg><style>@media (prefers-color-scheme: light) { :root { filter: none; } }
@media (prefers-color-scheme: dark) { :root { filter: invert(100%); } }
</style></svg>